<?xml version="1.0" standalone="no"?>
<!DOCTYPE svg PUBLIC "-//W3C//DTD SVG 20010904//EN"
 "http://www.w3.org/TR/2001/REC-SVG-20010904/DTD/svg10.dtd">
<svg version="1.0" xmlns="http://www.w3.org/2000/svg"
 width="169.000000pt" height="197.000000pt" viewBox="0 0 169.000000 197.000000"
 preserveAspectRatio="xMidYMid meet">

<g transform="translate(0.000000,197.000000) scale(0.100000,-0.100000)"
fill="#000000" stroke="none">
<path d="M405 1901 c0 -38 3 -72 7 -76 4 -4 -19 -32 -51 -63 -32 -32 -68 -76
-80 -100 -12 -24 -53 -72 -90 -108 -56 -52 -71 -74 -86 -119 -20 -66 -18 -102
21 -282 l28 -132 -21 -38 c-11 -21 -23 -53 -27 -71 -5 -28 -3 -33 11 -30 9 2
24 16 33 32 22 41 32 41 51 1 15 -33 15 -35 -3 -41 -11 -3 -26 -21 -35 -40
-14 -28 -14 -40 -4 -74 14 -46 38 -53 43 -12 2 15 9 27 17 27 17 0 30 -40 38
-113 5 -57 -7 -85 -34 -75 -11 4 -14 2 -9 -5 4 -7 20 -12 35 -12 25 0 29 -5
34 -37 7 -43 7 -44 -27 -47 -18 -2 -26 2 -26 12 0 12 -11 14 -61 8 -34 -3 -86
-6 -115 -6 l-54 0 0 -106 c0 -106 0 -106 23 -100 66 20 92 18 129 -11 21 -15
37 -34 38 -40 0 -16 2 -16 34 -3 42 16 30 4 -30 -31 -41 -23 -52 -34 -42 -40
13 -9 11 -10 -31 -14 -22 -2 -45 -24 -36 -34 2 -2 18 2 35 9 17 7 34 10 38 6
9 -9 -18 -26 -43 -26 -11 0 -33 -7 -49 -15 -15 -8 -37 -15 -47 -15 -11 0 -19
-4 -19 -9 0 -6 13 -6 33 -1 17 5 56 12 86 15 42 6 52 4 49 -6 -3 -8 -24 -17
-49 -21 -74 -14 -119 -28 -119 -39 0 -7 10 -8 27 -4 49 13 158 12 155 -2 -1
-7 5 -13 14 -13 12 0 15 6 10 23 -4 12 -10 41 -13 65 -5 41 -4 44 43 87 27 24
52 45 57 45 11 0 8 -25 -5 -39 -9 -10 -10 -12 -1 -7 16 9 27 -52 20 -105 -5
-36 -3 -39 15 -33 14 4 21 0 25 -15 5 -21 8 -21 394 -21 l389 0 -26 58 c-15
31 -44 107 -66 167 -42 115 -43 137 -22 290 4 35 3 38 -9 23 -8 -10 -23 -19
-33 -21 -10 -2 -26 -7 -34 -10 -12 -5 -201 -3 -255 3 -14 2 -119 -25 -133 -34
-7 -4 -12 -14 -12 -23 0 -13 9 -14 53 -9 28 4 97 9 152 11 55 2 130 6 166 10
56 5 67 3 73 -10 6 -16 -16 -69 -33 -79 -4 -3 -18 -36 -30 -73 -33 -102 -48
-118 -111 -115 -28 1 -59 -2 -69 -8 -21 -11 -91 5 -91 22 0 6 -9 8 -20 5 -11
-3 -18 -1 -14 4 3 5 -1 9 -9 9 -8 0 -20 7 -27 15 -7 8 -21 15 -32 15 -17 0
-19 5 -13 40 6 37 5 40 -20 46 -18 4 -30 2 -35 -7 -13 -20 -62 5 -53 27 5 13
3 16 -10 11 -11 -4 -17 -1 -17 9 0 19 -41 75 -50 69 -4 -2 -5 6 -3 20 3 15 10
22 19 18 8 -3 14 1 14 11 0 9 -4 16 -10 16 -5 0 -10 7 -10 15 0 8 -5 15 -11
15 -6 0 -9 9 -6 19 3 11 -2 29 -10 41 -16 22 -20 73 -8 109 4 13 2 21 -5 21
-6 0 -9 4 -6 9 3 5 3 23 0 39 -5 26 -11 30 -32 29 -21 -2 -27 4 -34 32 -6 21
-5 44 1 60 5 14 12 47 16 74 3 26 11 47 17 47 6 0 19 7 28 15 14 13 16 11 15
-13 0 -19 7 -30 28 -40 21 -10 27 -19 24 -33 -6 -24 23 -45 77 -55 l38 -7 -7
32 c-8 36 12 44 32 12 10 -16 22 -19 70 -17 32 2 67 7 77 11 13 6 21 4 24 -4
8 -23 31 23 32 62 0 65 -60 101 -187 112 -58 5 -89 3 -121 -8 l-43 -15 7 31
c3 18 10 34 15 35 5 2 16 10 24 18 10 10 20 12 31 6 11 -6 28 -3 55 12 34 19
41 20 71 7 32 -14 123 -16 161 -5 11 3 25 20 32 38 11 25 20 32 46 34 18 1 35
5 37 7 3 3 14 -5 25 -18 13 -15 21 -18 24 -9 7 20 57 14 71 -8 7 -11 9 -20 4
-20 -4 0 -13 -10 -21 -22 -7 -13 -10 -20 -7 -16 4 3 20 2 36 -2 21 -6 30 -4
34 6 8 21 23 17 30 -8 4 -17 8 -20 17 -11 8 8 7 18 -4 39 -13 25 -13 37 -1 89
7 33 17 80 21 104 l8 44 49 -46 c57 -53 63 -75 58 -217 l-3 -88 -126 5 c-153
6 -193 -6 -213 -66 -16 -48 -10 -76 15 -76 11 -1 27 -5 35 -10 26 -17 44 -14
68 8 l23 21 23 -28 c18 -23 28 -28 49 -24 15 3 28 1 29 -3 4 -27 1 -34 -22
-40 -20 -6 -17 -7 18 -8 35 -1 42 -4 42 -21 0 -36 14 -21 53 54 58 113 72 237
46 405 -5 35 -7 66 -4 69 8 8 65 -56 65 -73 0 -8 6 -18 14 -22 27 -16 66 -121
66 -180 0 -18 4 -33 9 -33 13 0 41 47 41 69 0 30 11 51 32 62 16 9 26 4 59
-30 55 -54 99 -121 99 -149 0 -13 -7 -36 -15 -50 -27 -47 -55 -144 -40 -138
10 3 8 -13 -6 -62 -11 -37 -24 -85 -28 -107 -4 -23 -11 -47 -15 -54 -13 -21
-27 9 -15 31 6 11 9 29 7 41 -2 17 -8 11 -26 -28 -71 -154 -80 -170 -82 -145
0 21 -2 22 -10 8 -6 -9 -10 -27 -9 -40 0 -12 0 -49 -1 -80 -1 -52 4 -69 61
-178 34 -66 65 -120 68 -121 3 0 33 -2 66 -3 34 -2 75 -11 93 -20 l32 -17 0
966 0 965 -148 0 -147 0 4 -112 c5 -151 5 -168 -2 -174 -3 -3 -22 -2 -42 2
-25 4 -57 24 -96 59 -32 28 -80 60 -106 70 -26 9 -59 24 -71 32 -53 33 -135
53 -219 53 -64 0 -83 3 -83 14 0 16 -27 29 -42 20 -7 -5 -5 -12 6 -20 15 -10
12 -13 -25 -19 -23 -4 -56 -13 -74 -21 -18 -7 -62 -16 -97 -20 l-66 -7 4 62 4
61 -43 0 -42 0 0 -69z m135 -106 c0 -12 -112 -56 -128 -50 -13 6 -8 11 23 22
22 8 54 19 70 23 17 4 31 8 33 9 1 1 2 -1 2 -4z m-370 -472 c0 -22 -2 -25 -10
-13 -13 20 -13 40 0 40 6 0 10 -12 10 -27z m430 -77 c0 -9 -39 -13 -51 -5 -10
6 -4 9 19 9 17 0 32 -2 32 -4z m-123 -242 c-3 -3 -12 -4 -19 -1 -8 3 -5 6 6 6
11 1 17 -2 13 -5z m642 -3 c23 -15 -5 -23 -54 -15 -25 3 -42 10 -39 15 7 11
75 11 93 0z m-802 -658 c-3 -10 -5 -4 -5 12 0 17 2 24 5 18 2 -7 2 -21 0 -30z
m-10 -45 c-3 -8 -6 -5 -6 6 -1 11 2 17 5 13 3 -3 4 -12 1 -19z"/>
<path d="M658 1963 c6 -2 18 -2 25 0 6 3 1 5 -13 5 -14 0 -19 -2 -12 -5z"/>
<path d="M720 1965 c0 -3 12 -10 27 -16 21 -8 30 -6 42 6 14 13 11 15 -27 15
-23 0 -42 -2 -42 -5z"/>
<path d="M18 933 c-16 -4 -18 -18 -18 -118 0 -125 0 -125 67 -125 l36 0 -8 58
c-4 31 -10 82 -14 112 -9 78 -16 86 -63 73z"/>
<path d="M498 863 c12 -2 30 -2 40 0 9 3 -1 5 -23 4 -22 0 -30 -2 -17 -4z"/>
<path d="M662 688 c-29 -18 -32 -24 -30 -69 3 -54 17 -66 65 -54 18 4 29 1 38
-11 13 -19 35 -11 35 13 0 11 6 14 21 10 34 -9 81 23 91 60 5 17 -2 28 -27 48
-20 15 -36 21 -40 15 -8 -13 -80 -13 -104 -1 -12 7 -26 4 -49 -11z"/>
<path d="M575 550 c-3 -5 1 -10 9 -10 9 0 16 5 16 10 0 6 -4 10 -9 10 -6 0
-13 -4 -16 -10z"/>
<path d="M629 398 c-28 -11 -23 -35 11 -53 54 -28 274 -15 255 15 -3 5 -1 11
5 15 5 3 10 10 10 15 0 11 -254 18 -281 8z"/>
<path d="M1578 28 c-16 -5 -28 -14 -28 -19 0 -17 57 -9 75 11 17 19 17 20 -1
19 -10 0 -31 -5 -46 -11z"/>
<path d="M128 3 c6 -2 18 -2 25 0 6 3 1 5 -13 5 -14 0 -19 -2 -12 -5z"/>
</g>
</svg>
